<svg xmlns="http://www.w3.org/2000/svg" xmlns:xlink="http://www.w3.org/1999/xlink" width="598" height="212"><defs><style type="text/css">
    @namespace "http://www.w3.org/2000/svg";
    .line                 {fill: none; stroke: #332900;}
    filled                {fill: #332900; stroke: none;}
    text                  {font-family: Verdana, Sans-serif;
                            font-size: 12px;
                            fill: #4D3D00;
                          }
    text.terminal         {font-family: Verdana, Sans-serif;
                            font-size: 12px;
                            fill: #4D3D00;
                            font-weight: bold;
                          }
    rect, circle, polygon {fill: #332900; stroke: #332900;}
    rect.terminal         {fill: #FFCC00; stroke: #332900;}
    rect.nonterminal      {fill: #FFEB99; stroke: #332900;}
    rect.text             {fill: none; stroke: none;}    
    polygon.regexp        {fill: #FFF5CC; stroke: #332900;}
  </style></defs><polygon points="9 17 1 13 1 21" class="filled"/><polygon points="17 17 9 13 9 21" class="filled"/><line x1="17" y1="17" x2="19" y2="17" class="line"/><rect x="51" y="3" width="60" height="32" rx="10"/><rect x="49" y="1" width="60" height="32" class="terminal" rx="10"/><text class="terminal" x="59" y="21">object</text><line x1="39" y1="17" x2="49" y2="17" class="line"/><line x1="109" y1="17" x2="119" y2="17" class="line"/><rect x="151" y="3" width="48" height="32" rx="10"/><rect x="149" y="1" width="48" height="32" class="terminal" rx="10"/><text class="terminal" x="159" y="21">host</text><line x1="139" y1="17" x2="149" y2="17" class="line"/><line x1="197" y1="17" x2="207" y2="17" class="line"/><a xlink:href="#host" xlink:title="host"><rect x="219" y="3" width="48" height="32"/><rect x="217" y="1" width="48" height="32" class="nonterminal"/><text class="nonterminal" x="227" y="21">host</text></a><line x1="207" y1="17" x2="217" y2="17" class="line"/><line x1="265" y1="17" x2="275" y2="17" class="line"/><line x1="275" y1="17" x2="457" y2="17" class="line"/><line x1="119" y1="17" x2="139" y2="17" class="line"/><line x1="457" y1="17" x2="477" y2="17" class="line"/><path d="M119 17 Q129 17 129 27" class="line"/><path d="M467 27 Q467 17 477 17" class="line"/><line x1="129" y1="27" x2="129" y2="51" class="line"/><line x1="467" y1="51" x2="467" y2="27" class="line"/><path d="M129 51 Q129 61 139 61" class="line"/><path d="M457 61 Q467 61 467 51" class="line"/><rect x="151" y="47" width="92" height="32" rx="10"/><rect x="149" y="45" width="92" height="32" class="terminal" rx="10"/><text class="terminal" x="159" y="65">component</text><line x1="139" y1="61" x2="149" y2="61" class="line"/><line x1="241" y1="61" x2="251" y2="61" class="line"/><a xlink:href="#component" xlink:title="component"><rect x="263" y="47" width="90" height="32"/><rect x="261" y="45" width="90" height="32" class="nonterminal"/><text class="nonterminal" x="271" y="65">component</text></a><line x1="251" y1="61" x2="261" y2="61" class="line"/><line x1="351" y1="61" x2="361" y2="61" class="line"/><line x1="361" y1="61" x2="457" y2="61" class="line"/><line x1="129" y1="51" x2="129" y2="71" class="line"/><line x1="467" y1="71" x2="467" y2="51" class="line"/><line x1="129" y1="71" x2="129" y2="95" class="line"/><line x1="467" y1="95" x2="467" y2="71" class="line"/><path d="M129 95 Q129 105 139 105" class="line"/><path d="M457 105 Q467 105 467 95" class="line"/><rect x="151" y="91" width="78" height="32" rx="10"/><rect x="149" y="89" width="78" height="32" class="terminal" rx="10"/><text class="terminal" x="159" y="109">interface</text><line x1="139" y1="105" x2="149" y2="105" class="line"/><line x1="227" y1="105" x2="237" y2="105" class="line"/><a xlink:href="#component" xlink:title="component"><rect x="249" y="91" width="90" height="32"/><rect x="247" y="89" width="90" height="32" class="nonterminal"/><text class="nonterminal" x="257" y="109">component</text></a><line x1="237" y1="105" x2="247" y2="105" class="line"/><line x1="337" y1="105" x2="347" y2="105" class="line"/><a xlink:href="#component" xlink:title="component"><rect x="359" y="91" width="90" height="32"/><rect x="357" y="89" width="90" height="32" class="nonterminal"/><text class="nonterminal" x="367" y="109">component</text></a><line x1="347" y1="105" x2="357" y2="105" class="line"/><line x1="447" y1="105" x2="457" y2="105" class="line"/><line x1="477" y1="17" x2="559" y2="17" class="line"/><line x1="19" y1="17" x2="39" y2="17" class="line"/><line x1="559" y1="17" x2="579" y2="17" class="line"/><path d="M19 17 Q29 17 29 27" class="line"/><path d="M569 27 Q569 17 579 17" class="line"/><line x1="29" y1="27" x2="29" y2="139" class="line"/><line x1="569" y1="139" x2="569" y2="27" class="line"/><path d="M29 139 Q29 149 39 149" class="line"/><path d="M559 149 Q569 149 569 139" class="line"/><rect x="51" y="135" width="74" height="32" rx="10"/><rect x="49" y="133" width="74" height="32" class="terminal" rx="10"/><text class="terminal" x="59" y="153">instance</text><line x1="39" y1="149" x2="49" y2="149" class="line"/><line x1="123" y1="149" x2="133" y2="149" class="line"/><rect x="165" y="135" width="92" height="32" rx="10"/><rect x="163" y="133" width="92" height="32" class="terminal" rx="10"/><text class="terminal" x="173" y="153">component</text><line x1="153" y1="149" x2="163" y2="149" class="line"/><line x1="255" y1="149" x2="265" y2="149" class="line"/><a xlink:href="#host" xlink:title="host"><rect x="277" y="135" width="48" height="32"/><rect x="275" y="133" width="48" height="32" class="nonterminal"/><text class="nonterminal" x="285" y="153">host</text></a><line x1="265" y1="149" x2="275" y2="149" class="line"/><line x1="323" y1="149" x2="333" y2="149" class="line"/><a xlink:href="#component" xlink:title="component"><rect x="345" y="135" width="90" height="32"/><rect x="343" y="133" width="90" height="32" class="nonterminal"/><text class="nonterminal" x="353" y="153">component</text></a><line x1="333" y1="149" x2="343" y2="149" class="line"/><line x1="433" y1="149" x2="443" y2="149" class="line"/><line x1="443" y1="149" x2="539" y2="149" class="line"/><line x1="133" y1="149" x2="153" y2="149" class="line"/><line x1="539" y1="149" x2="559" y2="149" class="line"/><path d="M133 149 Q143 149 143 159" class="line"/><path d="M549 159 Q549 149 559 149" class="line"/><line x1="143" y1="159" x2="143" y2="183" class="line"/><line x1="549" y1="183" x2="549" y2="159" class="line"/><path d="M143 183 Q143 193 153 193" class="line"/><path d="M539 193 Q549 193 549 183" class="line"/><rect x="165" y="179" width="78" height="32" rx="10"/><rect x="163" y="177" width="78" height="32" class="terminal" rx="10"/><text class="terminal" x="173" y="197">interface</text><line x1="153" y1="193" x2="163" y2="193" class="line"/><line x1="241" y1="193" x2="251" y2="193" class="line"/><a xlink:href="#host" xlink:title="host"><rect x="263" y="179" width="48" height="32"/><rect x="261" y="177" width="48" height="32" class="nonterminal"/><text class="nonterminal" x="271" y="197">host</text></a><line x1="251" y1="193" x2="261" y2="193" class="line"/><line x1="309" y1="193" x2="319" y2="193" class="line"/><a xlink:href="#component" xlink:title="component"><rect x="331" y="179" width="90" height="32"/><rect x="329" y="177" width="90" height="32" class="nonterminal"/><text class="nonterminal" x="339" y="197">component</text></a><line x1="319" y1="193" x2="329" y2="193" class="line"/><line x1="419" y1="193" x2="429" y2="193" class="line"/><a xlink:href="#component" xlink:title="component"><rect x="441" y="179" width="90" height="32"/><rect x="439" y="177" width="90" height="32" class="nonterminal"/><text class="nonterminal" x="449" y="197">component</text></a><line x1="429" y1="193" x2="439" y2="193" class="line"/><line x1="529" y1="193" x2="539" y2="193" class="line"/><line x1="582" y1="17" x2="579" y2="17" class="line"/><polygon points="589 17 597 13 597 21" class="filled"/><polygon points="589 17 581 13 581 21" class="filled"/></svg>
