<svg xmlns="http://www.w3.org/2000/svg" xmlns:xlink="http://www.w3.org/1999/xlink" width="320" height="256"><defs><style type="text/css">
    @namespace "http://www.w3.org/2000/svg";
    .line                 {fill: none; stroke: #332900;}
    filled                {fill: #332900; stroke: none;}
    text                  {font-family: Verdana, Sans-serif;
                            font-size: 12px;
                            fill: #4D3D00;
                          }
    text.terminal         {font-family: Verdana, Sans-serif;
                            font-size: 12px;
                            fill: #4D3D00;
                            font-weight: bold;
                          }
    rect, circle, polygon {fill: #332900; stroke: #332900;}
    rect.terminal         {fill: #FFCC00; stroke: #332900;}
    rect.nonterminal      {fill: #FFEB99; stroke: #332900;}
    rect.text             {fill: none; stroke: none;}    
    polygon.regexp        {fill: #FFF5CC; stroke: #332900;}
  </style></defs><polygon points="9 17 1 13 1 21" class="filled"/><polygon points="17 17 9 13 9 21" class="filled"/><line x1="17" y1="17" x2="19" y2="17" class="line"/><rect x="71" y="3" width="66" height="32" rx="10"/><rect x="69" y="1" width="66" height="32" class="terminal" rx="10"/><text class="terminal" x="79" y="21">started</text><line x1="59" y1="17" x2="69" y2="17" class="line"/><line x1="135" y1="17" x2="145" y2="17" class="line"/><line x1="145" y1="17" x2="151" y2="17" class="line"/><line x1="39" y1="17" x2="59" y2="17" class="line"/><line x1="151" y1="17" x2="171" y2="17" class="line"/><path d="M39 17 Q49 17 49 27" class="line"/><path d="M161 27 Q161 17 171 17" class="line"/><line x1="49" y1="27" x2="49" y2="51" class="line"/><line x1="161" y1="51" x2="161" y2="27" class="line"/><path d="M49 51 Q49 61 59 61" class="line"/><path d="M151 61 Q161 61 161 51" class="line"/><rect x="71" y="47" width="56" height="32" rx="10"/><rect x="69" y="45" width="56" height="32" class="terminal" rx="10"/><text class="terminal" x="79" y="65">failed</text><line x1="59" y1="61" x2="69" y2="61" class="line"/><line x1="125" y1="61" x2="135" y2="61" class="line"/><line x1="135" y1="61" x2="151" y2="61" class="line"/><line x1="49" y1="51" x2="49" y2="71" class="line"/><line x1="161" y1="71" x2="161" y2="51" class="line"/><line x1="49" y1="71" x2="49" y2="95" class="line"/><line x1="161" y1="95" x2="161" y2="71" class="line"/><path d="M49 95 Q49 105 59 105" class="line"/><path d="M151 105 Q161 105 161 95" class="line"/><rect x="71" y="91" width="70" height="32" rx="10"/><rect x="69" y="89" width="70" height="32" class="terminal" rx="10"/><text class="terminal" x="79" y="109">timeout</text><line x1="59" y1="105" x2="69" y2="105" class="line"/><line x1="139" y1="105" x2="149" y2="105" class="line"/><line x1="149" y1="105" x2="151" y2="105" class="line"/><line x1="49" y1="95" x2="49" y2="115" class="line"/><line x1="161" y1="115" x2="161" y2="95" class="line"/><line x1="49" y1="115" x2="49" y2="139" class="line"/><line x1="161" y1="139" x2="161" y2="115" class="line"/><path d="M49 139 Q49 149 59 149" class="line"/><path d="M151 149 Q161 149 161 139" class="line"/><rect x="71" y="135" width="72" height="32" rx="10"/><rect x="69" y="133" width="72" height="32" class="terminal" rx="10"/><text class="terminal" x="79" y="153">finished</text><line x1="59" y1="149" x2="69" y2="149" class="line"/><line x1="141" y1="149" x2="151" y2="149" class="line"/><a xlink:href="#array" xlink:title="array"><rect x="183" y="3" width="52" height="32"/><rect x="181" y="1" width="52" height="32" class="nonterminal"/><text class="nonterminal" x="191" y="21">array</text></a><line x1="171" y1="17" x2="181" y2="17" class="line"/><line x1="233" y1="17" x2="243" y2="17" class="line"/><line x1="243" y1="17" x2="281" y2="17" class="line"/><line x1="19" y1="17" x2="39" y2="17" class="line"/><line x1="281" y1="17" x2="301" y2="17" class="line"/><path d="M19 17 Q29 17 29 27" class="line"/><path d="M291 27 Q291 17 301 17" class="line"/><line x1="29" y1="27" x2="29" y2="183" class="line"/><line x1="291" y1="183" x2="291" y2="27" class="line"/><path d="M29 183 Q29 193 39 193" class="line"/><path d="M281 193 Q291 193 291 183" class="line"/><rect x="71" y="179" width="98" height="32" rx="10"/><rect x="69" y="177" width="98" height="32" class="terminal" rx="10"/><text class="terminal" x="79" y="197">perf_values</text><line x1="59" y1="193" x2="69" y2="193" class="line"/><line x1="167" y1="193" x2="177" y2="193" class="line"/><line x1="177" y1="193" x2="189" y2="193" class="line"/><line x1="39" y1="193" x2="59" y2="193" class="line"/><line x1="189" y1="193" x2="209" y2="193" class="line"/><path d="M39 193 Q49 193 49 203" class="line"/><path d="M199 203 Q199 193 209 193" class="line"/><line x1="49" y1="203" x2="49" y2="227" class="line"/><line x1="199" y1="227" x2="199" y2="203" class="line"/><path d="M49 227 Q49 237 59 237" class="line"/><path d="M189 237 Q199 237 199 227" class="line"/><rect x="71" y="223" width="110" height="32" rx="10"/><rect x="69" y="221" width="110" height="32" class="terminal" rx="10"/><text class="terminal" x="79" y="241">perf_samples</text><line x1="59" y1="237" x2="69" y2="237" class="line"/><line x1="179" y1="237" x2="189" y2="237" class="line"/><a xlink:href="#array" xlink:title="array"><rect x="221" y="179" width="52" height="32"/><rect x="219" y="177" width="52" height="32" class="nonterminal"/><text class="nonterminal" x="229" y="197">array</text></a><line x1="209" y1="193" x2="219" y2="193" class="line"/><line x1="271" y1="193" x2="281" y2="193" class="line"/><line x1="304" y1="17" x2="301" y2="17" class="line"/><polygon points="311 17 319 13 319 21" class="filled"/><polygon points="311 17 303 13 303 21" class="filled"/></svg>
