<svg xmlns="http://www.w3.org/2000/svg" xmlns:xlink="http://www.w3.org/1999/xlink" width="628" height="80"><defs><style type="text/css">
    @namespace "http://www.w3.org/2000/svg";
    .line                 {fill: none; stroke: #332900;}
    filled                {fill: #332900; stroke: none;}
    text                  {font-family: Verdana, Sans-serif;
                            font-size: 12px;
                            fill: #4D3D00;
                          }
    text.terminal         {font-family: Verdana, Sans-serif;
                            font-size: 12px;
                            fill: #4D3D00;
                            font-weight: bold;
                          }
    rect, circle, polygon {fill: #332900; stroke: #332900;}
    rect.terminal         {fill: #FFCC00; stroke: #332900;}
    rect.nonterminal      {fill: #FFEB99; stroke: #332900;}
    rect.text             {fill: none; stroke: none;}    
    polygon.regexp        {fill: #FFF5CC; stroke: #332900;}
  </style></defs><polygon points="9 17 1 13 1 21" class="filled"/><polygon points="17 17 9 13 9 21" class="filled"/><line x1="17" y1="17" x2="19" y2="17" class="line"/><rect x="31" y="3" width="82" height="32" rx="10"/><rect x="29" y="1" width="82" height="32" class="terminal" rx="10"/><text class="terminal" x="39" y="21">announce</text><line x1="19" y1="17" x2="29" y2="17" class="line"/><line x1="111" y1="17" x2="121" y2="17" class="line"/><rect x="153" y="3" width="78" height="32" rx="10"/><rect x="151" y="1" width="78" height="32" class="terminal" rx="10"/><text class="terminal" x="161" y="21">interface</text><line x1="141" y1="17" x2="151" y2="17" class="line"/><line x1="229" y1="17" x2="239" y2="17" class="line"/><a xlink:href="#host" xlink:title="host"><rect x="251" y="3" width="48" height="32"/><rect x="249" y="1" width="48" height="32" class="nonterminal"/><text class="nonterminal" x="259" y="21">host</text></a><line x1="239" y1="17" x2="249" y2="17" class="line"/><line x1="297" y1="17" x2="307" y2="17" class="line"/><a xlink:href="#component" xlink:title="component"><rect x="319" y="3" width="90" height="32"/><rect x="317" y="1" width="90" height="32" class="nonterminal"/><text class="nonterminal" x="327" y="21">component</text></a><line x1="307" y1="17" x2="317" y2="17" class="line"/><line x1="407" y1="17" x2="417" y2="17" class="line"/><a xlink:href="#component" xlink:title="component"><rect x="429" y="3" width="90" height="32"/><rect x="427" y="1" width="90" height="32" class="nonterminal"/><text class="nonterminal" x="437" y="21">component</text></a><line x1="417" y1="17" x2="427" y2="17" class="line"/><line x1="517" y1="17" x2="527" y2="17" class="line"/><a xlink:href="#ctxt" xlink:title="ctxt"><rect x="539" y="3" width="42" height="32"/><rect x="537" y="1" width="42" height="32" class="nonterminal"/><text class="nonterminal" x="547" y="21">ctxt</text></a><line x1="527" y1="17" x2="537" y2="17" class="line"/><line x1="579" y1="17" x2="589" y2="17" class="line"/><line x1="121" y1="17" x2="141" y2="17" class="line"/><line x1="589" y1="17" x2="609" y2="17" class="line"/><path d="M121 17 Q131 17 131 27" class="line"/><path d="M599 27 Q599 17 609 17" class="line"/><line x1="131" y1="27" x2="131" y2="51" class="line"/><line x1="599" y1="51" x2="599" y2="27" class="line"/><path d="M131 51 Q131 61 141 61" class="line"/><path d="M589 61 Q599 61 599 51" class="line"/><rect x="153" y="47" width="92" height="32" rx="10"/><rect x="151" y="45" width="92" height="32" class="terminal" rx="10"/><text class="terminal" x="161" y="65">component</text><line x1="141" y1="61" x2="151" y2="61" class="line"/><line x1="243" y1="61" x2="253" y2="61" class="line"/><a xlink:href="#host" xlink:title="host"><rect x="265" y="47" width="48" height="32"/><rect x="263" y="45" width="48" height="32" class="nonterminal"/><text class="nonterminal" x="273" y="65">host</text></a><line x1="253" y1="61" x2="263" y2="61" class="line"/><line x1="311" y1="61" x2="321" y2="61" class="line"/><a xlink:href="#component" xlink:title="component"><rect x="333" y="47" width="90" height="32"/><rect x="331" y="45" width="90" height="32" class="nonterminal"/><text class="nonterminal" x="341" y="65">component</text></a><line x1="321" y1="61" x2="331" y2="61" class="line"/><line x1="421" y1="61" x2="431" y2="61" class="line"/><a xlink:href="#ctxt" xlink:title="ctxt"><rect x="443" y="47" width="42" height="32"/><rect x="441" y="45" width="42" height="32" class="nonterminal"/><text class="nonterminal" x="451" y="65">ctxt</text></a><line x1="431" y1="61" x2="441" y2="61" class="line"/><line x1="483" y1="61" x2="493" y2="61" class="line"/><line x1="493" y1="61" x2="589" y2="61" class="line"/><line x1="612" y1="17" x2="609" y2="17" class="line"/><polygon points="619 17 627 13 627 21" class="filled"/><polygon points="619 17 611 13 611 21" class="filled"/></svg>
