<svg xmlns="http://www.w3.org/2000/svg" xmlns:xlink="http://www.w3.org/1999/xlink" width="444" height="190"><defs><style type="text/css">
    @namespace "http://www.w3.org/2000/svg";
    .line                 {fill: none; stroke: #332900;}
    filled                {fill: #332900; stroke: none;}
    text                  {font-family: Verdana, Sans-serif;
                            font-size: 12px;
                            fill: #4D3D00;
                          }
    text.terminal         {font-family: Verdana, Sans-serif;
                            font-size: 12px;
                            fill: #4D3D00;
                            font-weight: bold;
                          }
    rect, circle, polygon {fill: #332900; stroke: #332900;}
    rect.terminal         {fill: #FFCC00; stroke: #332900;}
    rect.nonterminal      {fill: #FFEB99; stroke: #332900;}
    rect.text             {fill: none; stroke: none;}    
    polygon.regexp        {fill: #FFF5CC; stroke: #332900;}
  </style></defs><polygon points="9 17 1 13 1 21" class="filled"/><polygon points="17 17 9 13 9 21" class="filled"/><line x1="17" y1="17" x2="19" y2="17" class="line"/><rect x="51" y="3" width="52" height="32" rx="10"/><rect x="49" y="1" width="52" height="32" class="terminal" rx="10"/><text class="terminal" x="59" y="21">stats</text><line x1="39" y1="17" x2="49" y2="17" class="line"/><line x1="101" y1="17" x2="111" y2="17" class="line"/><a xlink:href="#interval" xlink:title="interval"><rect x="143" y="3" width="66" height="32"/><rect x="141" y="1" width="66" height="32" class="nonterminal"/><text class="nonterminal" x="151" y="21">interval</text></a><line x1="131" y1="17" x2="141" y2="17" class="line"/><line x1="207" y1="17" x2="217" y2="17" class="line"/><line x1="111" y1="17" x2="131" y2="17" class="line"/><line x1="217" y1="17" x2="237" y2="17" class="line"/><path d="M111 17 Q121 17 121 27" class="line"/><path d="M227 27 Q227 17 237 17" class="line"/><line x1="121" y1="27" x2="121" y2="41" class="line"/><line x1="227" y1="41" x2="227" y2="27" class="line"/><path d="M121 41 Q121 51 131 51" class="line"/><path d="M217 51 Q227 51 227 41" class="line"/><line x1="131" y1="51" x2="141" y2="51" class="line"/><line x1="141" y1="51" x2="217" y2="51" class="line"/><a xlink:href="#name" xlink:title="name"><rect x="249" y="3" width="54" height="32"/><rect x="247" y="1" width="54" height="32" class="nonterminal"/><text class="nonterminal" x="257" y="21">name</text></a><line x1="237" y1="17" x2="247" y2="17" class="line"/><line x1="301" y1="17" x2="311" y2="17" class="line"/><a xlink:href="#property" xlink:title="property"><rect x="323" y="3" width="74" height="32"/><rect x="321" y="1" width="74" height="32" class="nonterminal"/><text class="nonterminal" x="331" y="21">property</text></a><line x1="311" y1="17" x2="321" y2="17" class="line"/><line x1="395" y1="17" x2="405" y2="17" class="line"/><line x1="19" y1="17" x2="39" y2="17" class="line"/><line x1="405" y1="17" x2="425" y2="17" class="line"/><path d="M19 17 Q29 17 29 27" class="line"/><path d="M415 27 Q415 17 425 17" class="line"/><line x1="29" y1="27" x2="29" y2="73" class="line"/><line x1="415" y1="73" x2="415" y2="27" class="line"/><path d="M29 73 Q29 83 39 83" class="line"/><path d="M405 83 Q415 83 415 73" class="line"/><rect x="51" y="69" width="82" height="32" rx="10"/><rect x="49" y="67" width="82" height="32" class="terminal" rx="10"/><text class="terminal" x="59" y="87">announce</text><line x1="39" y1="83" x2="49" y2="83" class="line"/><line x1="131" y1="83" x2="141" y2="83" class="line"/><a xlink:href="#type" xlink:title="type"><rect x="153" y="69" width="48" height="32"/><rect x="151" y="67" width="48" height="32" class="nonterminal"/><text class="nonterminal" x="161" y="87">type</text></a><line x1="141" y1="83" x2="151" y2="83" class="line"/><line x1="199" y1="83" x2="209" y2="83" class="line"/><a xlink:href="#event" xlink:title="event"><rect x="221" y="69" width="56" height="32"/><rect x="219" y="67" width="56" height="32" class="nonterminal"/><text class="nonterminal" x="229" y="87">event</text></a><line x1="209" y1="83" x2="219" y2="83" class="line"/><line x1="275" y1="83" x2="285" y2="83" class="line"/><line x1="285" y1="83" x2="405" y2="83" class="line"/><line x1="29" y1="73" x2="29" y2="93" class="line"/><line x1="415" y1="93" x2="415" y2="73" class="line"/><line x1="29" y1="93" x2="29" y2="117" class="line"/><line x1="415" y1="117" x2="415" y2="93" class="line"/><path d="M29 117 Q29 127 39 127" class="line"/><path d="M405 127 Q415 127 415 117" class="line"/><rect x="51" y="113" width="56" height="32" rx="10"/><rect x="49" y="111" width="56" height="32" class="terminal" rx="10"/><text class="terminal" x="59" y="131">event</text><line x1="39" y1="127" x2="49" y2="127" class="line"/><line x1="105" y1="127" x2="115" y2="127" class="line"/><a xlink:href="#id" xlink:title="id"><rect x="127" y="113" width="30" height="32"/><rect x="125" y="111" width="30" height="32" class="nonterminal"/><text class="nonterminal" x="135" y="131">id</text></a><line x1="115" y1="127" x2="125" y2="127" class="line"/><line x1="155" y1="127" x2="165" y2="127" class="line"/><a xlink:href="#event" xlink:title="event"><rect x="177" y="113" width="56" height="32"/><rect x="175" y="111" width="56" height="32" class="nonterminal"/><text class="nonterminal" x="185" y="131">event</text></a><line x1="165" y1="127" x2="175" y2="127" class="line"/><line x1="231" y1="127" x2="241" y2="127" class="line"/><line x1="241" y1="127" x2="405" y2="127" class="line"/><line x1="29" y1="117" x2="29" y2="137" class="line"/><line x1="415" y1="137" x2="415" y2="117" class="line"/><line x1="29" y1="137" x2="29" y2="161" class="line"/><line x1="415" y1="161" x2="415" y2="137" class="line"/><path d="M29 161 Q29 171 39 171" class="line"/><path d="M405 171 Q415 171 415 161" class="line"/><rect x="51" y="157" width="64" height="32" rx="10"/><rect x="49" y="155" width="64" height="32" class="terminal" rx="10"/><text class="terminal" x="59" y="175">spuren</text><line x1="39" y1="171" x2="49" y2="171" class="line"/><line x1="113" y1="171" x2="123" y2="171" class="line"/><a xlink:href="#id" xlink:title="id"><rect x="135" y="157" width="30" height="32"/><rect x="133" y="155" width="30" height="32" class="nonterminal"/><text class="nonterminal" x="143" y="175">id</text></a><line x1="123" y1="171" x2="133" y2="171" class="line"/><line x1="163" y1="171" x2="173" y2="171" class="line"/><line x1="173" y1="171" x2="405" y2="171" class="line"/><line x1="428" y1="17" x2="425" y2="17" class="line"/><polygon points="435 17 443 13 443 21" class="filled"/><polygon points="435 17 427 13 427 21" class="filled"/></svg>
