<svg xmlns="http://www.w3.org/2000/svg" xmlns:xlink="http://www.w3.org/1999/xlink" width="394" height="184"><defs><style type="text/css">
    @namespace "http://www.w3.org/2000/svg";
    .line                 {fill: none; stroke: #332900;}
    filled                {fill: #332900; stroke: none;}
    text                  {font-family: Verdana, Sans-serif;
                            font-size: 12px;
                            fill: #4D3D00;
                          }
    text.terminal         {font-family: Verdana, Sans-serif;
                            font-size: 12px;
                            fill: #4D3D00;
                            font-weight: bold;
                          }
    rect, circle, polygon {fill: #332900; stroke: #332900;}
    rect.terminal         {fill: #FFCC00; stroke: #332900;}
    rect.nonterminal      {fill: #FFEB99; stroke: #332900;}
    rect.text             {fill: none; stroke: none;}    
    polygon.regexp        {fill: #FFF5CC; stroke: #332900;}
  </style></defs><polygon points="9 17 1 13 1 21" class="filled"/><polygon points="17 17 9 13 9 21" class="filled"/><line x1="17" y1="17" x2="19" y2="17" class="line"/><rect x="31" y="3" width="52" height="32" rx="10"/><rect x="29" y="1" width="52" height="32" class="terminal" rx="10"/><text class="terminal" x="39" y="21">stats</text><line x1="19" y1="17" x2="29" y2="17" class="line"/><line x1="81" y1="17" x2="91" y2="17" class="line"/><rect x="123" y="3" width="50" height="32" rx="10"/><rect x="121" y="1" width="50" height="32" class="terminal" rx="10"/><text class="terminal" x="131" y="21">hour</text><line x1="111" y1="17" x2="121" y2="17" class="line"/><line x1="171" y1="17" x2="181" y2="17" class="line"/><line x1="181" y1="17" x2="187" y2="17" class="line"/><line x1="91" y1="17" x2="111" y2="17" class="line"/><line x1="187" y1="17" x2="207" y2="17" class="line"/><path d="M91 17 Q101 17 101 27" class="line"/><path d="M197 27 Q197 17 207 17" class="line"/><line x1="101" y1="27" x2="101" y2="51" class="line"/><line x1="197" y1="51" x2="197" y2="27" class="line"/><path d="M101 51 Q101 61 111 61" class="line"/><path d="M187 61 Q197 61 197 51" class="line"/><rect x="123" y="47" width="44" height="32" rx="10"/><rect x="121" y="45" width="44" height="32" class="terminal" rx="10"/><text class="terminal" x="131" y="65">day</text><line x1="111" y1="61" x2="121" y2="61" class="line"/><line x1="165" y1="61" x2="175" y2="61" class="line"/><line x1="175" y1="61" x2="187" y2="61" class="line"/><line x1="101" y1="51" x2="101" y2="71" class="line"/><line x1="197" y1="71" x2="197" y2="51" class="line"/><line x1="101" y1="71" x2="101" y2="95" class="line"/><line x1="197" y1="95" x2="197" y2="71" class="line"/><path d="M101 95 Q101 105 111 105" class="line"/><path d="M187 105 Q197 105 197 95" class="line"/><rect x="123" y="91" width="56" height="32" rx="10"/><rect x="121" y="89" width="56" height="32" class="terminal" rx="10"/><text class="terminal" x="131" y="109">week</text><line x1="111" y1="105" x2="121" y2="105" class="line"/><line x1="177" y1="105" x2="187" y2="105" class="line"/><line x1="101" y1="95" x2="101" y2="115" class="line"/><line x1="197" y1="115" x2="197" y2="95" class="line"/><line x1="101" y1="115" x2="101" y2="139" class="line"/><line x1="197" y1="139" x2="197" y2="115" class="line"/><path d="M101 139 Q101 149 111 149" class="line"/><path d="M187 149 Q197 149 197 139" class="line"/><rect x="123" y="135" width="50" height="32" rx="10"/><rect x="121" y="133" width="50" height="32" class="terminal" rx="10"/><text class="terminal" x="131" y="153">year</text><line x1="111" y1="149" x2="121" y2="149" class="line"/><line x1="171" y1="149" x2="181" y2="149" class="line"/><line x1="181" y1="149" x2="187" y2="149" class="line"/><line x1="101" y1="139" x2="101" y2="159" class="line"/><line x1="197" y1="159" x2="197" y2="139" class="line"/><line x1="101" y1="159" x2="101" y2="173" class="line"/><line x1="197" y1="173" x2="197" y2="159" class="line"/><path d="M101 173 Q101 183 111 183" class="line"/><path d="M187 183 Q197 183 197 173" class="line"/><line x1="111" y1="183" x2="121" y2="183" class="line"/><line x1="121" y1="183" x2="187" y2="183" class="line"/><a xlink:href="#name" xlink:title="name"><rect x="219" y="3" width="54" height="32"/><rect x="217" y="1" width="54" height="32" class="nonterminal"/><text class="nonterminal" x="227" y="21">name</text></a><line x1="207" y1="17" x2="217" y2="17" class="line"/><line x1="271" y1="17" x2="281" y2="17" class="line"/><a xlink:href="#property" xlink:title="property"><rect x="293" y="3" width="74" height="32"/><rect x="291" y="1" width="74" height="32" class="nonterminal"/><text class="nonterminal" x="301" y="21">property</text></a><line x1="281" y1="17" x2="291" y2="17" class="line"/><line x1="365" y1="17" x2="375" y2="17" class="line"/><line x1="378" y1="17" x2="375" y2="17" class="line"/><polygon points="385 17 393 13 393 21" class="filled"/><polygon points="385 17 377 13 377 21" class="filled"/></svg>
