<svg xmlns="http://www.w3.org/2000/svg" xmlns:xlink="http://www.w3.org/1999/xlink" width="688" height="168"><defs><style type="text/css">
    @namespace "http://www.w3.org/2000/svg";
    .line                 {fill: none; stroke: #332900;}
    filled                {fill: #332900; stroke: none;}
    text                  {font-family: Verdana, Sans-serif;
                            font-size: 12px;
                            fill: #4D3D00;
                          }
    text.terminal         {font-family: Verdana, Sans-serif;
                            font-size: 12px;
                            fill: #4D3D00;
                            font-weight: bold;
                          }
    rect, circle, polygon {fill: #332900; stroke: #332900;}
    rect.terminal         {fill: #FFCC00; stroke: #332900;}
    rect.nonterminal      {fill: #FFEB99; stroke: #332900;}
    rect.text             {fill: none; stroke: none;}    
    polygon.regexp        {fill: #FFF5CC; stroke: #332900;}
  </style></defs><polygon points="9 17 1 13 1 21" class="filled"/><polygon points="17 17 9 13 9 21" class="filled"/><line x1="17" y1="17" x2="19" y2="17" class="line"/><rect x="31" y="3" width="56" height="32" rx="10"/><rect x="29" y="1" width="56" height="32" class="terminal" rx="10"/><text class="terminal" x="39" y="21">event</text><line x1="19" y1="17" x2="29" y2="17" class="line"/><line x1="85" y1="17" x2="95" y2="17" class="line"/><rect x="107" y="3" width="28" height="32" rx="10"/><rect x="105" y="1" width="28" height="32" class="terminal" rx="10"/><text class="terminal" x="115" y="21">d</text><line x1="95" y1="17" x2="105" y2="17" class="line"/><line x1="133" y1="17" x2="143" y2="17" class="line"/><a xlink:href="#timestamp" xlink:title="timestamp"><rect x="155" y="3" width="86" height="32"/><rect x="153" y="1" width="86" height="32" class="nonterminal"/><text class="nonterminal" x="163" y="21">timestamp</text></a><line x1="143" y1="17" x2="153" y2="17" class="line"/><line x1="239" y1="17" x2="249" y2="17" class="line"/><rect x="261" y="3" width="28" height="32" rx="10"/><rect x="259" y="1" width="28" height="32" class="terminal" rx="10"/><text class="terminal" x="269" y="21">h</text><line x1="249" y1="17" x2="259" y2="17" class="line"/><line x1="287" y1="17" x2="297" y2="17" class="line"/><a xlink:href="#host" xlink:title="host"><rect x="309" y="3" width="48" height="32"/><rect x="307" y="1" width="48" height="32" class="nonterminal"/><text class="nonterminal" x="317" y="21">host</text></a><line x1="297" y1="17" x2="307" y2="17" class="line"/><line x1="355" y1="17" x2="365" y2="17" class="line"/><rect x="377" y="3" width="28" height="32" rx="10"/><rect x="375" y="1" width="28" height="32" class="terminal" rx="10"/><text class="terminal" x="385" y="21">n</text><line x1="365" y1="17" x2="375" y2="17" class="line"/><line x1="403" y1="17" x2="413" y2="17" class="line"/><a xlink:href="#component" xlink:title="component"><rect x="425" y="3" width="90" height="32"/><rect x="423" y="1" width="90" height="32" class="nonterminal"/><text class="nonterminal" x="433" y="21">component</text></a><line x1="413" y1="17" x2="423" y2="17" class="line"/><line x1="513" y1="17" x2="523" y2="17" class="line"/><rect x="535" y="3" width="26" height="32" rx="10"/><rect x="533" y="1" width="26" height="32" class="terminal" rx="10"/><text class="terminal" x="543" y="21">c</text><line x1="523" y1="17" x2="533" y2="17" class="line"/><line x1="559" y1="17" x2="569" y2="17" class="line"/><a xlink:href="#ctxt" xlink:title="ctxt"><rect x="581" y="3" width="42" height="32"/><rect x="579" y="1" width="42" height="32" class="nonterminal"/><text class="nonterminal" x="589" y="21">ctxt</text></a><line x1="569" y1="17" x2="579" y2="17" class="line"/><line x1="621" y1="17" x2="631" y2="17" class="line"/><rect x="643" y="3" width="24" height="32" rx="10"/><rect x="641" y="1" width="24" height="32" class="terminal" rx="10"/><text class="terminal" x="651" y="21">t</text><line x1="631" y1="17" x2="641" y2="17" class="line"/><line x1="665" y1="17" x2="675" y2="17" class="line"/><path class="line" d="M677 17 L679 17 M681 17 L683 17 M685 17 L687 17 M247 83 L249 83 M251 83 L253 83 M255 83 L257 83"/><rect x="291" y="69" width="28" height="32" rx="10"/><rect x="289" y="67" width="28" height="32" class="terminal" rx="10"/><text class="terminal" x="299" y="87">n</text><line x1="279" y1="83" x2="289" y2="83" class="line"/><line x1="317" y1="83" x2="327" y2="83" class="line"/><rect x="339" y="69" width="26" height="32" rx="10"/><rect x="337" y="67" width="26" height="32" class="terminal" rx="10"/><text class="terminal" x="347" y="87">s</text><line x1="327" y1="83" x2="337" y2="83" class="line"/><line x1="363" y1="83" x2="373" y2="83" class="line"/><a xlink:href="#status" xlink:title="status"><rect x="385" y="69" width="60" height="32"/><rect x="383" y="67" width="60" height="32" class="nonterminal"/><text class="nonterminal" x="393" y="87">status</text></a><line x1="373" y1="83" x2="383" y2="83" class="line"/><line x1="443" y1="83" x2="453" y2="83" class="line"/><rect x="485" y="69" width="28" height="32" rx="10"/><rect x="483" y="67" width="28" height="32" class="terminal" rx="10"/><text class="terminal" x="493" y="87">d</text><line x1="473" y1="83" x2="483" y2="83" class="line"/><line x1="511" y1="83" x2="521" y2="83" class="line"/><a xlink:href="#description" xlink:title="description"><rect x="533" y="69" width="88" height="32"/><rect x="531" y="67" width="88" height="32" class="nonterminal"/><text class="nonterminal" x="541" y="87">description</text></a><line x1="521" y1="83" x2="531" y2="83" class="line"/><line x1="619" y1="83" x2="629" y2="83" class="line"/><line x1="453" y1="83" x2="473" y2="83" class="line"/><line x1="629" y1="83" x2="649" y2="83" class="line"/><path d="M453 83 Q463 83 463 93" class="line"/><path d="M639 93 Q639 83 649 83" class="line"/><line x1="463" y1="93" x2="463" y2="107" class="line"/><line x1="639" y1="107" x2="639" y2="93" class="line"/><path d="M463 107 Q463 117 473 117" class="line"/><path d="M629 117 Q639 117 639 107" class="line"/><line x1="473" y1="117" x2="483" y2="117" class="line"/><line x1="483" y1="117" x2="629" y2="117" class="line"/><line x1="259" y1="83" x2="279" y2="83" class="line"/><line x1="649" y1="83" x2="669" y2="83" class="line"/><path d="M259 83 Q269 83 269 93" class="line"/><path d="M659 93 Q659 83 669 83" class="line"/><line x1="269" y1="93" x2="269" y2="139" class="line"/><line x1="659" y1="139" x2="659" y2="93" class="line"/><path d="M269 139 Q269 149 279 149" class="line"/><path d="M649 149 Q659 149 659 139" class="line"/><rect x="291" y="135" width="26" height="32" rx="10"/><rect x="289" y="133" width="26" height="32" class="terminal" rx="10"/><text class="terminal" x="299" y="153">c</text><line x1="279" y1="149" x2="289" y2="149" class="line"/><line x1="315" y1="149" x2="325" y2="149" class="line"/><line x1="325" y1="149" x2="649" y2="149" class="line"/><line x1="672" y1="83" x2="669" y2="83" class="line"/><polygon points="679 83 687 79 687 87" class="filled"/><polygon points="679 83 671 79 671 87" class="filled"/></svg>
